<?xml version="1.0" encoding="utf-8"?>
<!-- Generator: Adobe Illustrator 19.2.1, SVG Export Plug-In . SVG Version: 6.00 Build 0)  -->
<svg version="1.1" id="Layer_1" xmlns="http://www.w3.org/2000/svg" xmlns:xlink="http://www.w3.org/1999/xlink" x="0px" y="0px"
	 viewBox="0 0 400 400" style="enable-background:new 0 0 400 400;" xml:space="preserve">
<style type="text/css">
	.st0{fill:#2A4D8E;}
	.st1{opacity:0.15;fill:#00AAD2;enable-background:new    ;}
	.st2{opacity:0.15;fill:#272B38;enable-background:new    ;}
	.st3{fill:#449BBC;fill-opacity:0;}
	.st4{fill:none;}
	.st5{opacity:0.35;fill:#272B38;enable-background:new    ;}
	.st6{fill:#00AAE6;}
	.st7{fill:#FFFFFF;}
</style>
<title>ip-icon-blue</title>
<g>
	<g id="Layer_1_1_">
		<polygon class="st0" points="298,30.2 396,200 298,369.8 102,369.8 4,200 102,30.2 		"/>
		<polygon class="st1" points="102,369.8 200,200 102,30.2 4,200 		"/>
		<polygon class="st2" points="396,200 200,200 102,369.8 298,369.8 		"/>
		<circle class="st3" cx="200" cy="200" r="98"/>
		<circle class="st4" cx="200" cy="200" r="196"/>
		<circle class="st4" cx="200" cy="200" r="196"/>
		<polygon class="st5" points="272.1,298 151,284.9 100.3,212.8 151,115.1 268.4,123.1 298,200 		"/>
		<circle class="st3" cx="200" cy="200" r="98"/>
		<polygon class="st6" points="249,284.9 151,284.9 102,200 151,115.1 249,115.1 298,200 		"/>
		<polygon class="st7" points="224.5,242.4 151,284.9 151,200 151,115.1 224.5,157.6 298,200 		"/>
	</g>
</g>
</svg>
